<?xml version="1.0" encoding="UTF-8" standalone="no"?>
<!-- Generator: Adobe Illustrator 20.0.0, SVG Export Plug-In . SVG Version: 6.00 Build 0)  -->

<svg
   xmlns:dc="http://purl.org/dc/elements/1.1/"
   xmlns:cc="http://creativecommons.org/ns#"
   xmlns:rdf="http://www.w3.org/1999/02/22-rdf-syntax-ns#"
   xmlns:svg="http://www.w3.org/2000/svg"
   xmlns="http://www.w3.org/2000/svg"
   xmlns:sodipodi="http://sodipodi.sourceforge.net/DTD/sodipodi-0.dtd"
   xmlns:inkscape="http://www.inkscape.org/namespaces/inkscape"
   version="1.1"
   id="Layer_1"
   preserveAspectRatio="xMidYMin slice"
   style="overflow:visible"
   viewBox="0 0 700.00002 700.00002"
   overflow="scroll"
   xml:space="preserve"
   sodipodi:docname="correios-logo.svg"
   width="700"
   height="700"
   inkscape:version="0.92.4 (5da689c313, 2019-01-14)"
   inkscape:export-filename="C:\Users\suitedoalex\sites\correios-logo-0.png"
   inkscape:export-xdpi="561.73712"
   inkscape:export-ydpi="561.73712"><metadata
   id="metadata61"><rdf:RDF><cc:Work
       rdf:about=""><dc:format>image/svg+xml</dc:format><dc:type
         rdf:resource="http://purl.org/dc/dcmitype/StillImage" /><dc:title></dc:title></cc:Work></rdf:RDF></metadata><defs
   id="defs59"><linearGradient
     id="SVGID_4_-7"
     gradientUnits="userSpaceOnUse"
     x1="91.803703"
     y1="-4.211"
     x2="66.793602"
     y2="15.329"
     gradientTransform="matrix(2.683118,0,0,2.683118,182.43929,159.43991)"><stop
       offset="0"
       style="stop-color:#002542"
       id="stop29-2" /><stop
       offset="1"
       style="stop-color:#004169"
       id="stop31-4" /></linearGradient><linearGradient
     id="SVGID_3_-9"
     gradientUnits="userSpaceOnUse"
     x1="55.927799"
     y1="62.2183"
     x2="114.8193"
     y2="16.372499"
     gradientTransform="matrix(2.683118,0,0,2.683118,182.43929,159.43991)"><stop
       offset="0"
       style="stop-color:#00537E"
       id="stop20-9" /><stop
       offset="0.9"
       style="stop-color:#18AAE2"
       id="stop22-0" /><stop
       offset="1"
       style="stop-color:#107BC0"
       id="stop24-5" /></linearGradient><linearGradient
     id="SVGID_2_-2"
     gradientUnits="userSpaceOnUse"
     x1="70.016098"
     y1="75.860298"
     x2="27.217699"
     y2="75.860298"
     gradientTransform="matrix(2.683118,0,0,2.683118,182.43929,159.43991)"><stop
       offset="0"
       style="stop-color:#D49F00"
       id="stop13-9" /><stop
       offset="1"
       style="stop-color:#AB5808"
       id="stop15-2" /></linearGradient><linearGradient
     id="SVGID_1_-1"
     gradientUnits="userSpaceOnUse"
     x1="68.841797"
     y1="28.893801"
     x2="10.0538"
     y2="74.823997"
     gradientTransform="matrix(2.683118,0,0,2.683118,182.43929,159.43991)"><stop
       offset="0"
       style="stop-color:#FFDD00"
       id="stop4-4" /><stop
       offset="0.9"
       style="stop-color:#D49F00"
       id="stop6-7" /><stop
       offset="1"
       style="stop-color:#FFDD00"
       id="stop8-7" /></linearGradient></defs><sodipodi:namedview
   pagecolor="#ffffff"
   bordercolor="#666666"
   borderopacity="1"
   objecttolerance="10"
   gridtolerance="10"
   guidetolerance="10"
   inkscape:pageopacity="0"
   inkscape:pageshadow="2"
   inkscape:window-width="1600"
   inkscape:window-height="837"
   id="namedview57"
   showgrid="false"
   inkscape:zoom="0.5303698"
   inkscape:cx="44.878221"
   inkscape:cy="295.47052"
   inkscape:window-x="-8"
   inkscape:window-y="-8"
   inkscape:window-maximized="1"
   inkscape:current-layer="Layer_1" />
<style
   type="text/css"
   id="style2">
	.st0{fill-rule:evenodd;clip-rule:evenodd;fill:url(#SVGID_1_);}
	.st1{fill-rule:evenodd;clip-rule:evenodd;fill:url(#SVGID_2_);}
	.st2{fill-rule:evenodd;clip-rule:evenodd;fill:url(#SVGID_3_);}
	.st3{fill-rule:evenodd;clip-rule:evenodd;fill:url(#SVGID_4_);}
	.st4{fill:#0BBBEF;}
	.st5{fill:#FFD500;}
	.st6{fill:#06416A;}
</style>
<linearGradient
   id="SVGID_1_"
   gradientUnits="userSpaceOnUse"
   x1="68.841797"
   y1="28.893801"
   x2="10.0538"
   y2="74.823997"
   gradientTransform="matrix(1.5428037,0,0,1.5428037,11.966432,719.51716)">
	<stop
   offset="0"
   style="stop-color:#FFDD00"
   id="stop4" />
	<stop
   offset="0.9"
   style="stop-color:#D49F00"
   id="stop6" />
	<stop
   offset="1"
   style="stop-color:#FFDD00"
   id="stop8" />
</linearGradient>
<path
   class="st0"
   d="m 60.873313,860.22093 h -6.171216 c -4.936971,0 -9.411101,-2.31421 -12.342428,-6.01694 L 13.046396,816.55958 c -0.617122,-0.92568 -1.079963,-2.00564 -1.079963,-3.23988 0,-1.23425 0.462841,-2.31421 1.079963,-3.2399 l 29.467553,-37.6444 c 2.931327,-3.70273 7.251177,-6.01695 12.342428,-6.01695 h 65.106313 l -37.027288,46.43841 -26.999061,34.09595 z"
   id="path11"
   inkscape:connector-curvature="0"
   style="clip-rule:evenodd;fill:url(#SVGID_1_);fill-rule:evenodd;stroke-width:1.54280376"
   inkscape:export-filename="C:\Users\suitedoalex\sites\correios-logo-4.png"
   inkscape:export-xdpi="55.894341"
   inkscape:export-ydpi="55.894341" />
<linearGradient
   id="SVGID_2_"
   gradientUnits="userSpaceOnUse"
   x1="70.016098"
   y1="75.860298"
   x2="27.217699"
   y2="75.860298"
   gradientTransform="matrix(1.5428037,0,0,1.5428037,11.966432,719.51716)">
	<stop
   offset="0"
   style="stop-color:#D49F00"
   id="stop13" />
	<stop
   offset="1"
   style="stop-color:#AB5808"
   id="stop15" />
</linearGradient>
<path
   class="st1"
   d="m 83.398244,813.3197 -0.308554,-0.46284 -27.153349,34.09595 c -1.079964,1.38853 -2.005645,3.2399 -2.005645,6.32551 0,3.08559 2.931327,6.94261 8.793981,6.94261 h 57.238013 z"
   id="path18"
   inkscape:connector-curvature="0"
   style="clip-rule:evenodd;fill:url(#SVGID_2_);fill-rule:evenodd;stroke-width:1.54280376"
   inkscape:export-filename="C:\Users\suitedoalex\sites\correios-logo-4.png"
   inkscape:export-xdpi="55.894341"
   inkscape:export-ydpi="55.894341" />
<linearGradient
   id="SVGID_3_"
   gradientUnits="userSpaceOnUse"
   x1="55.927799"
   y1="62.2183"
   x2="114.8193"
   y2="16.372499"
   gradientTransform="matrix(1.5428037,0,0,1.5428037,11.966432,719.51716)">
	<stop
   offset="0"
   style="stop-color:#00537E"
   id="stop20" />
	<stop
   offset="0.9"
   style="stop-color:#18AAE2"
   id="stop22" />
	<stop
   offset="1"
   style="stop-color:#107BC0"
   id="stop24" />
</linearGradient>
<path
   class="st2"
   d="m 160.53843,732.78533 -4.93697,-13.26811 h 6.17122 c 4.93697,0 9.4111,2.31421 12.34242,6.01694 l 29.46756,37.64442 c 0.61711,0.92568 1.07996,2.00565 1.07996,3.23987 0,1.23425 -0.46285,2.31422 -1.07996,3.2399 l -29.62183,37.64442 c -2.93134,3.70273 -7.25118,6.01694 -12.34243,6.01694 H 96.512077 l 37.027293,-46.4384 z"
   id="path27"
   inkscape:connector-curvature="0"
   style="clip-rule:evenodd;fill:url(#SVGID_3_);fill-rule:evenodd;stroke-width:1.54280376"
   inkscape:export-filename="C:\Users\suitedoalex\sites\correios-logo-4.png"
   inkscape:export-xdpi="55.894341"
   inkscape:export-ydpi="55.894341" />
<linearGradient
   id="SVGID_4_"
   gradientUnits="userSpaceOnUse"
   x1="91.803703"
   y1="-4.211"
   x2="66.793602"
   y2="15.329"
   gradientTransform="matrix(1.5428037,0,0,1.5428037,11.966432,719.51716)">
	<stop
   offset="0"
   style="stop-color:#002542"
   id="stop29" />
	<stop
   offset="1"
   style="stop-color:#004169"
   id="stop31" />
</linearGradient>
<path
   class="st3"
   d="m 133.23081,766.41845 0.30856,0.46286 26.99906,-34.09597 c 1.07997,-1.38851 2.00564,-3.23988 2.00564,-6.32549 0,-3.0856 -2.93132,-6.94262 -8.79397,-6.94262 H 96.512077 Z"
   id="path34"
   inkscape:connector-curvature="0"
   style="clip-rule:evenodd;fill:url(#SVGID_4_);fill-rule:evenodd;stroke-width:1.54280376"
   inkscape:export-filename="C:\Users\suitedoalex\sites\correios-logo-4.png"
   inkscape:export-xdpi="55.894341"
   inkscape:export-ydpi="55.894341" />
<path
   class="st4"
   d="m 162.08123,732.16821 c 1.07996,-1.38851 1.6971,-2.93132 1.6971,-4.78269 0,-4.31985 -3.54846,-7.86829 -7.8683,-7.86829 h -2.00565 c 4.31985,0 7.71402,3.54845 7.71402,7.86829 0,1.85137 -0.61713,3.54846 -1.69709,4.78269 l -26.6905,34.25024 -36.564444,46.74696 z"
   id="path36"
   inkscape:connector-curvature="0"
   style="fill:#0bbbef;stroke-width:1.54280376"
   inkscape:export-filename="C:\Users\suitedoalex\sites\correios-logo-4.png"
   inkscape:export-xdpi="55.894341"
   inkscape:export-ydpi="55.894341" />
<path
   class="st5"
   d="m 54.547818,847.56994 c -1.079963,1.38852 -1.697085,2.93132 -1.697085,4.78269 0,4.31985 3.548449,7.8683 7.868299,7.8683 h 2.005645 c -4.31985,0 -7.8683,-3.54845 -7.8683,-7.8683 0,-1.85137 0.617122,-3.54845 1.697085,-4.78269 L 83.398244,813.3197 119.96269,766.57274 Z"
   id="path38"
   inkscape:connector-curvature="0"
   style="fill:#ffd500;stroke-width:1.54280376"
   inkscape:export-filename="C:\Users\suitedoalex\sites\correios-logo-4.png"
   inkscape:export-xdpi="55.894341"
   inkscape:export-ydpi="55.894341" />
<path
   class="st6"
   d="m 448.88846,785.54923 c -3.70273,0 -6.63406,0.46285 -9.71967,1.38851 -4.93696,1.54281 -8.63969,4.16558 -11.41675,7.8683 -4.78269,6.17122 -4.6284,13.57668 -4.6284,13.57668 v 51.52965 h 13.73095 c 0.92569,0 1.54281,-0.7714 1.54281,-1.54281 v -48.90688 c 0,-0.92568 0.15427,-4.31985 2.00564,-6.01693 1.5428,-1.38853 3.54844,-2.00565 5.55409,-2.31421 2.15992,-0.30855 4.31985,-0.15428 5.39981,0 0,0 0.15429,0 0.30857,0 1.07996,0 1.85135,-0.61712 2.3142,-1.38852 l 7.0969,-12.18813 c -3.70273,-1.38854 -7.71402,-2.15994 -12.18815,-2.00566"
   id="path40"
   inkscape:connector-curvature="0"
   style="fill:#06416a;stroke-width:1.54280376"
   inkscape:export-filename="C:\Users\suitedoalex\sites\correios-logo-4.png"
   inkscape:export-xdpi="55.894341"
   inkscape:export-ydpi="55.894341" />
<path
   class="st6"
   d="m 408.467,785.54923 c -3.70273,0 -6.78834,0.46285 -9.71967,1.38851 -4.93697,1.54281 -8.63969,4.16558 -11.41674,7.8683 -4.78269,6.17122 -4.62841,13.57668 -4.62841,13.57668 v 51.52965 h 13.73095 c 0.92569,0 1.54281,-0.7714 1.54281,-1.54281 v -48.90688 c 0,-0.92568 0.15427,-4.31985 2.00564,-6.01693 1.54281,-1.38853 3.54844,-2.00565 5.55409,-2.31421 2.15992,-0.30855 4.31985,-0.15428 5.39982,0 0,0 0.15428,0 0.30856,0 0.92568,0 1.85137,-0.61712 2.31421,-1.38852 l 7.25117,-12.34243 c -4.01129,-1.23424 -7.8683,-2.00565 -12.34243,-1.85136"
   id="path42"
   inkscape:connector-curvature="0"
   style="fill:#06416a;stroke-width:1.54280376"
   inkscape:export-filename="C:\Users\suitedoalex\sites\correios-logo-4.png"
   inkscape:export-xdpi="55.894341"
   inkscape:export-ydpi="55.894341" />
<path
   class="st6"
   d="m 288.43687,840.93588 c -0.46284,-0.61712 -1.38853,-1.07996 -2.31421,-1.07996 -0.46284,0 -1.07996,0.15428 -1.38852,0.46285 v 0 c -4.62841,2.77705 -10.18251,4.47412 -16.04516,4.47412 -17.27941,0 -31.31891,-14.0395 -31.31891,-31.47319 0,-17.27941 14.0395,-31.31891 31.31891,-31.31891 5.86265,0 11.41675,1.5428 16.04516,4.47413 0.46283,0.30856 0.92568,0.46284 1.54281,0.46284 0.92567,0 1.69708,-0.46284 2.3142,-1.07997 l 7.8683,-10.1825 c -7.71403,-5.70837 -17.27941,-9.10254 -27.77047,-9.10254 -25.9191,0 -46.90124,20.98214 -46.90124,46.90124 0,25.9191 20.98214,46.90123 46.90124,46.90123 10.33679,0 19.90217,-3.39416 27.77047,-9.10254 z"
   id="path44"
   inkscape:connector-curvature="0"
   style="fill:#06416a;stroke-width:1.54280376"
   inkscape:export-filename="C:\Users\suitedoalex\sites\correios-logo-4.png"
   inkscape:export-xdpi="55.894341"
   inkscape:export-ydpi="55.894341" />
<path
   class="st6"
   d="m 496.86966,799.28018 v 0 c 10.1825,0 18.82221,6.63405 21.90782,15.7366 h -43.66135 c 3.0856,-9.10255 11.7253,-15.7366 21.75353,-15.7366 m 0,-14.81091 c -20.82786,0 -37.7987,16.97083 -37.7987,37.79869 0,20.67357 16.97084,37.64441 37.7987,37.79868 0.30855,0 1.07996,0 1.07996,0 8.17685,0 14.81091,-1.07996 23.6049,-6.78832 l 1.38851,-0.92569 c 0,0 -7.71401,-10.02822 -7.86828,-10.18251 -0.46285,-0.61712 -1.38853,-1.07996 -2.15994,-1.07996 -0.46283,0 -0.92567,0.15429 -1.38852,0.30856 -2.00564,1.07996 -8.02257,3.70273 -14.65663,3.70273 -10.02823,0 -18.51365,-6.32549 -21.75353,-15.27376 h 51.83819 6.01694 c 0.92567,0 1.54279,-0.7714 1.54279,-1.5428 l 0.15429,-4.31985 c 0,-0.61712 0,-1.07996 0,-1.69708 0.15428,-20.82786 -16.81656,-37.79868 -37.79868,-37.79869 z"
   id="path46"
   inkscape:connector-curvature="0"
   style="fill:#06416a;stroke-width:1.54280376"
   inkscape:export-filename="C:\Users\suitedoalex\sites\correios-logo-4.png"
   inkscape:export-xdpi="55.894341"
   inkscape:export-ydpi="55.894341" />
<path
   class="st6"
   d="m 545.15942,860.22093 c -0.92569,0 -1.54281,-0.61712 -1.54281,-1.5428 v -70.19758 c 0,-0.7714 0.61712,-1.54281 1.54281,-1.54281 h 12.18815 c 0.92567,0 1.54279,0.77141 1.54279,1.54281 v 70.19758 c 0,0.92568 -0.7714,1.5428 -1.54279,1.5428 z"
   id="path48"
   inkscape:connector-curvature="0"
   style="fill:#06416a;stroke-width:1.54280376"
   inkscape:export-filename="C:\Users\suitedoalex\sites\correios-logo-4.png"
   inkscape:export-xdpi="55.894341"
   inkscape:export-ydpi="55.894341" />
<path
   class="st6"
   d="m 337.03518,798.97162 v 0 c -12.651,0 -22.8335,10.18251 -22.8335,22.8335 0,12.65099 10.1825,22.83349 22.8335,22.83349 12.651,0 22.8335,-10.1825 22.8335,-22.83349 0,-12.65099 -10.1825,-22.8335 -22.8335,-22.8335 m 0,61.24931 c -21.13642,0 -38.26154,-17.12513 -38.26154,-38.26154 0,-21.1364 17.12512,-38.26153 38.26154,-38.26153 21.13641,0 38.26154,17.12513 38.26154,38.26153 0,20.98214 -17.12513,38.26154 -38.26154,38.26154 z"
   id="path50"
   inkscape:connector-curvature="0"
   style="fill:#06416a;stroke-width:1.54280376"
   inkscape:export-filename="C:\Users\suitedoalex\sites\correios-logo-4.png"
   inkscape:export-xdpi="55.894341"
   inkscape:export-ydpi="55.894341" />
<path
   class="st6"
   d="m 604.55736,799.58873 v 0 c -12.49672,0 -22.67921,10.18252 -22.67921,22.67923 0,12.4967 10.18249,22.52493 22.67921,22.52493 12.49669,0 22.67921,-10.1825 22.67921,-22.52493 0,-12.4967 -10.18252,-22.67923 -22.67921,-22.67923 m 0,60.47791 c -20.98214,0 -37.95298,-16.97084 -37.95298,-37.95297 0,-20.98213 16.97084,-37.95297 37.95298,-37.95297 20.98214,0 37.95298,16.97084 37.95298,37.95297 0,20.98213 -16.97084,37.95297 -37.95298,37.95297 z"
   id="path52"
   inkscape:connector-curvature="0"
   style="fill:#06416a;stroke-width:1.54280376"
   inkscape:export-filename="C:\Users\suitedoalex\sites\correios-logo-4.png"
   inkscape:export-xdpi="55.894341"
   inkscape:export-ydpi="55.894341" />
<path
   class="st6"
   d="m 685.55455,816.4053 c -2.62275,-1.23424 -6.01694,-2.00564 -9.71967,-2.93132 -5.39981,-1.38853 -10.49107,-1.69709 -12.34242,-4.62842 -1.6971,-2.77704 -0.77141,-5.86265 1.5428,-7.55973 5.39981,-3.70273 12.65099,-2.15993 16.66227,-0.30857 0.77141,0.30857 3.70273,2.00566 3.70273,2.00566 0.46284,0.30855 0.92569,0.46284 1.38853,0.46284 0.92568,0 1.69708,-0.46284 2.3142,-1.23425 0,0 7.71402,-9.87393 7.71402,-9.87393 l -1.23424,-1.07996 c -0.7714,-0.61714 -1.85137,-1.23426 -2.93133,-1.85137 -2.3142,-1.23424 -9.25681,-5.24554 -19.28505,-5.24554 -0.30855,0 -0.61712,0 -0.92567,0 -22.0621,0.46284 -25.14771,16.04517 -25.14771,21.59925 0,8.33115 4.31985,14.34808 10.79962,18.0508 5.24554,2.93134 14.96521,4.62842 19.90218,6.17122 2.62276,0.77141 4.47413,2.62277 5.24553,4.31985 0.30856,0.77141 0.46284,1.54281 0.46284,2.46849 0.15428,2.93133 -1.38853,6.17122 -5.70837,7.55974 -4.7827,1.38852 -12.18815,0.7714 -18.97649,-4.47413 -0.15428,-0.15428 -0.92569,-0.7714 -1.23424,-0.92569 -0.30856,-0.15427 -0.61712,-0.15427 -1.07996,-0.15427 -0.92569,0 -1.69708,0.46284 -2.31421,1.23424 -0.15428,0.15429 -7.55974,9.71967 -7.55974,9.71967 0,0 2.62277,2.15992 3.54845,2.77704 4.31985,3.23989 12.03387,7.55973 22.0621,7.55973 h 0.30855 c 21.2907,0 26.22767,-15.11946 26.22767,-23.45061 0,-8.33114 -5.09126,-16.508 -13.42239,-20.21073"
   id="path54"
   inkscape:connector-curvature="0"
   style="fill:#06416a;stroke-width:1.54280376"
   inkscape:export-filename="C:\Users\suitedoalex\sites\correios-logo-4.png"
   inkscape:export-xdpi="55.894341"
   inkscape:export-ydpi="55.894341" />
<path
   class="st0"
   d="m 267.49403,404.14025 h -10.73244 c -8.58585,0 -16.367,-4.02469 -21.46488,-10.46401 l -50.97933,-65.4682 c -1.0732,-1.60989 -1.87811,-3.48799 -1.87811,-5.63458 0,-2.14637 0.80491,-4.02468 1.87811,-5.63457 l 51.24761,-65.46798 c 5.09787,-6.43951 12.61075,-10.4642 21.46505,-10.4642 h 113.2276 l -64.39503,80.76184 -46.95445,59.29693 z"
   id="path11-2"
   inkscape:connector-curvature="0"
   style="clip-rule:evenodd;overflow:visible;fill:url(#SVGID_1_-1);fill-rule:evenodd;stroke-width:2.6831181"
   inkscape:export-filename="C:\Users\suitedoalex\sites\correios-logo-5.png"
   inkscape:export-xdpi="69.201729"
   inkscape:export-ydpi="69.201729" /><path
   class="st1"
   d="m 306.66754,322.57346 -0.53649,-0.80491 -47.22289,59.29693 c -1.87812,2.41486 -3.488,5.63458 -3.488,11.00093 0,5.36609 5.09789,12.07384 15.29363,12.07384 h 99.54385 z"
   id="path18-6"
   inkscape:connector-curvature="0"
   style="clip-rule:evenodd;overflow:visible;fill:url(#SVGID_2_-2);fill-rule:evenodd;stroke-width:2.6831181"
   inkscape:export-filename="C:\Users\suitedoalex\sites\correios-logo-5.png"
   inkscape:export-xdpi="69.201729"
   inkscape:export-ydpi="69.201729" /><path
   class="st2"
   d="m 440.82352,182.5147 -8.58587,-23.07476 h 10.73244 c 8.58588,0 16.36698,4.02469 21.4649,10.46419 l 51.24756,65.46801 c 1.07324,1.60988 1.87818,3.48821 1.87818,5.63457 0,2.14657 -0.80494,4.02469 -1.87818,5.63457 l -51.51587,65.46823 c -5.09792,6.43927 -12.61071,10.46395 -21.46503,10.46395 h -113.2276 l 64.39483,-80.76181 z"
   id="path27-3"
   inkscape:connector-curvature="0"
   style="clip-rule:evenodd;overflow:visible;fill:url(#SVGID_3_-9);fill-rule:evenodd;stroke-width:2.6831181"
   inkscape:export-filename="C:\Users\suitedoalex\sites\correios-logo-5.png"
   inkscape:export-xdpi="69.201729"
   inkscape:export-ydpi="69.201729" /><path
   class="st3"
   d="m 393.3324,241.00671 0.53648,0.80494 46.95464,-59.29695 c 1.87813,-2.41462 3.488,-5.63437 3.488,-11.00069 0,-5.36632 -5.09786,-12.07407 -15.29362,-12.07407 h -99.54385 z"
   id="path34-2"
   inkscape:connector-curvature="0"
   style="clip-rule:evenodd;overflow:visible;fill:url(#SVGID_4_-7);fill-rule:evenodd;stroke-width:2.6831181"
   inkscape:export-filename="C:\Users\suitedoalex\sites\correios-logo-5.png"
   inkscape:export-xdpi="69.201729"
   inkscape:export-ydpi="69.201729" /><path
   class="st4"
   d="m 443.50658,181.44151 c 1.87833,-2.41482 2.95151,-5.09788 2.95151,-8.31763 0,-7.51269 -6.17126,-13.68394 -13.68394,-13.68394 h -3.48801 c 7.51269,0 13.41551,6.17125 13.41551,13.68394 0,3.21975 -1.07319,6.17126 -2.9513,8.31763 l -46.41795,59.5652 -63.5899,81.29853 z"
   id="path36-7"
   inkscape:connector-curvature="0"
   style="overflow:visible;fill:#0bbbef;stroke-width:2.6831181"
   inkscape:export-filename="C:\Users\suitedoalex\sites\correios-logo-5.png"
   inkscape:export-xdpi="69.201729"
   inkscape:export-ydpi="69.201729" /><path
   class="st5"
   d="m 256.49335,382.13867 c -1.87812,2.41481 -2.95153,5.09808 -2.95153,8.31786 0,7.51267 6.17128,13.68372 13.68397,13.68372 h 3.488 c -7.51269,0 -13.68375,-6.17105 -13.68375,-13.68372 0,-3.21978 1.07319,-6.17128 2.95131,-8.31786 l 46.68619,-59.56521 63.5901,-81.2983 z"
   id="path38-8"
   inkscape:connector-curvature="0"
   style="overflow:visible;fill:#ffd500;stroke-width:2.6831181"
   inkscape:export-filename="C:\Users\suitedoalex\sites\correios-logo-5.png"
   inkscape:export-xdpi="69.201729"
   inkscape:export-ydpi="69.201729" /><path
   class="st6"
   d="m 336.63432,453.54861 c -4.30572,0 -7.7144,0.53822 -11.3025,1.61466 -5.74096,1.79401 -10.04668,4.84395 -13.27597,9.14968 -5.56156,7.17617 -5.38215,15.78763 -5.38215,15.78763 v 59.92126 h 15.96704 c 1.07643,0 1.79405,-0.89707 1.79405,-1.79415 v -56.87131 c 0,-1.07644 0.17939,-5.02331 2.33226,-6.99682 1.79405,-1.61464 4.12632,-2.33222 6.45859,-2.69108 2.51167,-0.35872 5.02333,-0.17936 6.27917,0 0,0 0.1794,0 0.35881,0 1.25583,0 2.15286,-0.71758 2.69107,-1.61465 l 8.25264,-14.17299 c -4.30572,-1.61465 -8.97025,-2.51159 -14.17301,-2.33223"
   id="path40-5"
   inkscape:connector-curvature="0"
   style="overflow:visible;fill:#06416a;fill-opacity:1;stroke-width:1.79404938"
   inkscape:export-filename="C:\Users\suitedoalex\sites\correios-logo-5.png"
   inkscape:export-xdpi="69.201729"
   inkscape:export-ydpi="69.201729" /><path
   class="st6"
   d="m 289.63022,453.54861 c -4.30572,0 -7.89381,0.53822 -11.30251,1.61466 -5.74096,1.79401 -10.04668,4.84395 -13.27596,9.14968 -5.56155,7.17617 -5.38215,15.78763 -5.38215,15.78763 v 59.92126 h 15.96704 c 1.07644,0 1.79405,-0.89707 1.79405,-1.79415 v -56.87131 c 0,-1.07644 0.1794,-5.02331 2.33227,-6.99682 1.79405,-1.61464 4.12629,-2.33222 6.45857,-2.69108 2.51166,-0.35872 5.02333,-0.17936 6.27918,0 0,0 0.1794,0 0.3588,0 1.07643,0 2.15287,-0.71758 2.69108,-1.61465 l 8.43203,-14.35235 c -4.66452,-1.43529 -9.14965,-2.33223 -14.3524,-2.15287"
   id="path42-2"
   inkscape:connector-curvature="0"
   style="overflow:visible;fill:#06416a;fill-opacity:1;stroke-width:1.79404938"
   inkscape:export-filename="C:\Users\suitedoalex\sites\correios-logo-5.png"
   inkscape:export-xdpi="69.201729"
   inkscape:export-ydpi="69.201729" /><path
   class="st6"
   d="m 150.05319,517.95496 c -0.53822,-0.71757 -1.61466,-1.25579 -2.69109,-1.25579 -0.53822,0 -1.25583,0.17936 -1.61463,0.53822 v 0 c -5.38216,3.22929 -11.84075,5.20267 -18.65812,5.20267 -20.09336,0 -36.419203,-16.32572 -36.419203,-36.59859 0,-20.09337 16.325843,-36.41909 36.419203,-36.41909 6.81737,0 13.27596,1.79401 18.65812,5.20267 0.5382,0.35885 1.07641,0.53822 1.79404,0.53822 1.07642,0 1.97346,-0.53822 2.69107,-1.2558 l 9.14965,-11.84076 c -8.97024,-6.63795 -20.09335,-10.58483 -32.29288,-10.58483 -30.140031,0 -54.539081,24.39896 -54.539081,54.53908 0,30.14 24.39905,54.5391 54.539081,54.5391 12.02013,0 23.14323,-3.94689 32.29288,-10.58498 z"
   id="path44-0"
   inkscape:connector-curvature="0"
   style="overflow:visible;fill:#06416a;fill-opacity:1;stroke-width:1.79404938"
   inkscape:export-filename="C:\Users\suitedoalex\sites\correios-logo-5.png"
   inkscape:export-xdpi="69.201729"
   inkscape:export-ydpi="69.201729" /><path
   class="st6"
   d="m 392.42927,469.51561 v 0 c 11.84073,0 21.88741,7.7144 25.47551,18.29936 h -50.7716 c 3.58809,-10.58496 13.63477,-18.29936 25.29609,-18.29936 m 0,-17.22279 c -24.21967,0 -43.95421,19.73452 -43.95421,43.95412 0,24.04038 19.73454,43.7749 43.95421,43.95426 0.3588,0 1.25584,0 1.25584,0 9.50845,0 17.22287,-1.25579 27.44895,-7.89376 l 1.61464,-1.07642 c 0,0 -8.97024,-11.66141 -9.14964,-11.84077 -0.53821,-0.71757 -1.61465,-1.25579 -2.51168,-1.25579 -0.5382,0 -1.07641,0.17936 -1.61464,0.35872 -2.33226,1.25592 -9.32905,4.30573 -17.04347,4.30573 -11.66132,0 -21.52859,-7.35554 -25.29609,-17.76101 h 60.28004 6.99679 c 1.07643,0 1.79406,-0.89707 1.79406,-1.79415 l 0.17941,-5.0233 c 0,-0.71758 0,-1.25579 0,-1.97351 0.17939,-24.2196 -19.55516,-43.95412 -43.95421,-43.95412 z"
   id="path46-8"
   inkscape:connector-curvature="0"
   style="overflow:visible;fill:#06416a;fill-opacity:1;stroke-width:1.79404938"
   inkscape:export-filename="C:\Users\suitedoalex\sites\correios-logo-5.png"
   inkscape:export-xdpi="69.201729"
   inkscape:export-ydpi="69.201729" /><path
   class="st6"
   d="m 448.58303,540.38056 c -1.07644,0 -1.79405,-0.71758 -1.79405,-1.79401 v -81.62927 c 0,-0.89694 0.71761,-1.79401 1.79405,-1.79401 H 462.756 c 1.07643,0 1.79405,0.89707 1.79405,1.79401 v 81.62927 c 0,1.07643 -0.89702,1.79401 -1.79405,1.79401 z"
   id="path48-2"
   inkscape:connector-curvature="0"
   style="overflow:visible;fill:#06416a;fill-opacity:1;stroke-width:1.79404938"
   inkscape:export-filename="C:\Users\suitedoalex\sites\correios-logo-5.png"
   inkscape:export-xdpi="69.201729"
   inkscape:export-ydpi="69.201729" /><path
   class="st6"
   d="m 206.56574,469.15689 v 0 c -14.71121,0 -26.55193,11.84063 -26.55193,26.55183 0,14.71121 11.84072,26.55198 26.55193,26.55198 14.71121,0 26.55193,-11.84077 26.55193,-26.55198 0,-14.7112 -11.84072,-26.55183 -26.55193,-26.55183 m 0,71.22367 c -24.57849,0 -44.49244,-19.91388 -44.49244,-44.49234 0,-24.57846 19.91395,-44.49247 44.49244,-44.49247 24.57848,0 44.49244,19.91401 44.49244,44.49247 0,24.3991 -19.91396,44.49234 -44.49244,44.49234 z"
   id="path50-2"
   inkscape:connector-curvature="0"
   style="overflow:visible;fill:#06416a;fill-opacity:1;stroke-width:1.79404938"
   inkscape:export-filename="C:\Users\suitedoalex\sites\correios-logo-5.png"
   inkscape:export-xdpi="69.201729"
   inkscape:export-ydpi="69.201729" /><path
   class="st6"
   d="m 517.65392,469.87447 v 0 c -14.53182,0 -26.37251,11.84077 -26.37251,26.37247 0,14.53184 11.8407,26.19312 26.37251,26.19312 14.53178,0 26.37251,-11.84064 26.37251,-26.19312 0,-14.5317 -11.84073,-26.37247 -26.37251,-26.37247 m 0,70.32673 c -24.39908,0 -44.13362,-19.73452 -44.13362,-44.13362 0,-24.3991 19.73454,-44.13362 44.13362,-44.13362 24.39907,0 44.13362,19.73452 44.13362,44.13362 0,24.3991 -19.73455,44.13362 -44.13362,44.13362 z"
   id="path52-3"
   inkscape:connector-curvature="0"
   style="overflow:visible;fill:#06416a;fill-opacity:1;stroke-width:1.79404938"
   inkscape:export-filename="C:\Users\suitedoalex\sites\correios-logo-5.png"
   inkscape:export-xdpi="69.201729"
   inkscape:export-ydpi="69.201729" /><path
   class="st6"
   d="m 611.84151,489.42963 c -3.04987,-1.4353 -6.99681,-2.33223 -11.30253,-3.40867 -6.27917,-1.61464 -12.19953,-1.9735 -14.35238,-5.38216 -1.97347,-3.2293 -0.89703,-6.81745 1.79405,-8.79082 6.27916,-4.30573 14.71121,-2.51173 19.37573,-0.35886 0.89702,0.35886 4.30572,2.33223 4.30572,2.33223 0.53821,0.35885 1.07642,0.53821 1.61464,0.53821 1.07643,0 1.97345,-0.53821 2.69108,-1.43515 0,0 8.97024,-11.48191 8.97024,-11.48191 l -1.43523,-1.25592 c -0.89703,-0.71759 -2.15286,-1.43516 -3.4087,-2.15287 -2.69107,-1.43515 -10.76429,-6.09975 -22.42562,-6.09975 -0.35881,0 -0.71761,0 -1.07641,0 -25.65492,0.53822 -29.24302,18.65809 -29.24302,25.11669 0,9.68789 5.02334,16.6847 12.55834,20.99044 6.09977,3.40866 17.40228,5.38216 23.14324,7.17617 3.04989,0.89708 5.20275,3.04995 6.09977,5.02331 0.35882,0.89708 0.53821,1.79401 0.53821,2.87044 0.1794,3.4088 -1.61465,7.17631 -6.63798,8.79096 -5.56155,1.61466 -14.17298,0.89694 -22.06681,-5.2028 -0.1794,-0.17936 -1.07643,-0.89707 -1.43524,-1.07644 -0.35881,-0.17936 -0.71761,-0.17936 -1.25583,-0.17936 -1.07643,0 -1.97345,0.53823 -2.69108,1.43516 -0.17939,0.17949 -8.79083,11.30255 -8.79083,11.30255 0,0 3.04988,2.51172 4.12631,3.2293 5.02334,3.7675 13.99359,8.79082 25.65492,8.79082 h 0.35879 c 24.75789,0 30.49884,-17.58165 30.49884,-27.26955 0,-9.6879 -5.92037,-19.1963 -15.60822,-23.50202"
   id="path54-4"
   inkscape:connector-curvature="0"
   style="overflow:visible;fill:#06416a;fill-opacity:1;stroke-width:1.79404938"
   inkscape:export-filename="C:\Users\suitedoalex\sites\correios-logo-5.png"
   inkscape:export-xdpi="69.201729"
   inkscape:export-ydpi="69.201729" /></svg>